# Blender v2.83.3 OBJ File: 'grass_blade.blend'
# www.blender.org
mtllib grass_blade.mtl
o Cube
v 0.090544 1.525563 -0.292045
v 0.211611 0.264247 -0.329239
v 0.221102 1.652859 -0.006900
v 0.212817 0.497874 0.128857
v -0.195324 0.421444 -0.222769
v -0.209823 -1.000000 -0.340037
v -0.109682 1.570507 0.032053
v -0.166545 0.276156 0.156164
v 0.079917 2.557147 -0.240084
v 0.113460 2.681527 -0.120653
v -0.055502 2.499987 -0.198495
v -0.076501 2.399887 -0.092531
v 0.054285 3.544642 -0.170895
v 0.054285 3.544642 -0.170895
v 0.054285 3.544642 -0.170895
v 0.054285 3.544642 -0.170895
v 0.244085 -1.553085 -0.340037
v 0.244085 -0.984573 0.156913
v -0.209823 -2.557932 -0.340037
v -0.209823 -2.139161 0.156913
v 0.369807 -3.278851 -0.408296
v 0.338921 -3.724258 0.245733
v -0.236354 -3.725922 -0.410872
v -0.342259 -3.506117 0.224891
vt 0.625000 0.250000
vt 0.625000 0.000000
vt 0.625000 0.000000
vt 0.625000 0.250000
vt 0.375000 0.750000
vt 0.625000 0.750000
vt 0.625000 1.000000
vt 0.375000 1.000000
vt 0.375000 0.000000
vt 0.375000 0.250000
vt 0.375000 0.250000
vt 0.375000 0.000000
vt 0.375000 0.500000
vt 0.625000 0.500000
vt 0.625000 0.500000
vt 0.625000 0.250000
vt 0.625000 0.500000
vt 0.625000 0.750000
vt 0.625000 1.000000
vt 0.875000 0.500000
vt 0.875000 0.750000
vt 0.625000 0.750000
vt 0.625000 0.000000
vt 0.625000 1.000000
vt 0.375000 0.500000
vt 0.375000 0.750000
vt 0.375000 0.750000
vt 0.375000 0.500000
vt 0.375000 1.000000
vt 0.125000 0.500000
vt 0.125000 0.750000
vt 0.375000 0.250000
vt 0.375000 1.000000
vt 0.375000 0.000000
vn -0.9982 0.0596 0.0056
vn 0.0481 0.1041 0.9934
vn -0.9960 0.0264 0.0858
vn -0.9996 0.0109 0.0250
vn 0.9806 0.0379 -0.1923
vn -0.2360 0.0465 -0.9706
vn -0.3154 0.0582 -0.9472
vn 0.9168 0.0407 -0.3972
vn -0.3496 0.0375 -0.9361
vn 0.0377 0.1286 0.9910
vn 0.0000 0.0000 1.0000
vn 0.9480 0.0467 -0.3148
vn -0.9897 0.1065 -0.0955
vn 0.0558 0.0618 0.9965
vn 0.9985 0.0494 0.0215
vn 0.9997 0.0192 -0.0174
vn 0.0039 0.0032 -1.0000
vn 0.0207 0.0073 0.9998
vn 0.1757 -0.9727 -0.1515
vn -0.0604 0.0459 -0.9971
vn -0.0501 0.0386 0.9980
vn -0.9899 0.0622 -0.1276
usemtl Material
s off
f 5/1/1 7/2/1 12/3/1 11/4/1
f 4/5/2 3/6/2 7/7/2 8/8/2
f 8/9/3 7/2/3 5/1/3 6/10/3
f 8/9/4 6/10/4 19/11/4 20/12/4
f 2/13/5 1/14/5 3/6/5 4/5/5
f 6/10/6 5/1/6 1/14/6 2/13/6
f 9/15/7 11/4/7 15/16/7 13/17/7
f 3/6/8 1/14/8 9/15/8 10/18/8
f 1/14/9 5/1/9 11/4/9 9/15/9
f 7/7/10 3/6/10 10/18/10 12/19/10
f 13/17/11 15/20/11 16/21/11 14/22/11
f 10/18/12 9/15/12 13/17/12 14/22/12
f 11/4/13 12/3/13 16/23/13 15/16/13
f 12/19/14 10/18/14 14/22/14 16/24/14
f 17/25/15 18/26/15 22/27/15 21/28/15
f 2/13/16 4/5/16 18/26/16 17/25/16
f 6/10/17 2/13/17 17/25/17 19/11/17
f 4/5/18 8/8/18 20/29/18 18/26/18
f 23/30/19 21/28/19 22/27/19 24/31/19
f 19/11/20 17/25/20 21/28/20 23/32/20
f 18/26/21 20/29/21 24/33/21 22/27/21
f 20/12/22 19/11/22 23/32/22 24/34/22
