# Blender v2.83.3 OBJ File: 'bad.blend'
# www.blender.org
mtllib tree-top.mtl
o Cube_Cube.002
v 0.172459 1.436861 1.699607
v 0.417065 2.001341 -0.489399
v 2.644793 1.897617 1.382394
v 2.440888 2.530935 -0.661260
v 0.357840 4.166511 1.890188
v 0.518468 5.055715 -0.555971
v 2.843461 3.756728 1.827195
v 2.478414 4.084785 -0.555733
v 0.355072 7.470281 1.972197
v 0.563069 7.014389 -0.340417
v 2.978028 6.497593 1.409945
v 2.524605 6.797390 -0.802719
v 1.073390 8.801941 1.513356
v 1.101579 8.801941 -0.651774
v 3.155369 8.801941 1.017361
v 2.804646 8.801941 -0.395621
v 1.055275 8.284855 1.848417
v 3.274093 11.948109 -3.881579
v 0.313535 11.641515 -2.799530
v 2.551945 11.866369 -3.360801
v -0.930105 12.530076 -2.034222
v -1.627790 13.322872 -0.448541
v -2.035314 11.977945 -0.146103
v -1.362463 11.425932 -1.602004
v -0.930105 12.530076 -2.034222
v 0.080878 10.793890 -2.778433
v -1.362463 11.425932 -1.602004
v 1.706321 10.577533 -3.876089
v 0.080878 10.793890 -2.778433
v 3.519989 10.474421 -3.929634
v 1.706321 10.577533 -3.876089
vt 0.625000 0.250000
vt 0.625000 0.000000
vt 0.625000 0.000000
vt 0.625000 0.250000
vt 0.625000 0.750000
vt 0.625000 0.500000
vt 0.625000 0.500000
vt 0.625000 0.750000
vt 0.625000 1.000000
vt 0.625000 0.750000
vt 0.625000 1.000000
vt 0.625000 0.500000
vt 0.625000 0.250000
vt 0.625000 0.000000
vt 0.625000 0.000000
vt 0.625000 0.250000
vt 0.625000 1.000000
vt 0.625000 0.750000
vt 0.625000 1.000000
vt 0.625000 0.500000
vn -0.9962 0.0509 -0.0711
vn 0.9817 -0.0547 -0.1823
vn 0.0771 -0.1431 0.9867
vn -0.0420 0.0097 -0.9991
vn 0.9895 -0.0463 -0.1372
vn -0.9313 0.3542 -0.0852
vn -0.9970 0.0122 -0.0761
vn 0.1352 0.0519 0.9895
vn -0.1183 -0.0044 -0.9930
vn 0.2484 0.1624 0.9549
vn -0.0540 0.0368 -0.9979
vn 0.9694 -0.1021 -0.2234
vn 0.0000 1.0000 0.0000
vn 0.1796 -0.9470 -0.2663
usemtl Material.002
s off
f 2/1/1 1/2/1 5/3/1 6/4/1
f 7/5/2 8/6/2 12/7/2 11/8/2
f 1/9/3 3/10/3 7/5/3 5/11/3
f 4/12/4 2/1/4 6/4/4 8/6/4
f 3/10/5 4/12/5 8/6/5 7/5/5
f 10/13/6 9/14/6 13/15/6 14/16/6
f 6/4/7 5/3/7 9/14/7 10/13/7
f 5/11/8 7/5/8 11/8/8 9/17/8
f 8/6/9 6/4/9 10/13/9 12/7/9
f 9/17/10 11/8/10 15/18/10 13/19/10
f 12/7/11 10/13/11 14/16/11 16/20/11
f 11/8/12 12/7/12 16/20/12 15/18/12
f 13/19/13 15/18/13 16/20/13 14/16/13
f 1/9/14 2/1/14 4/12/14 3/10/14
l 13 17
l 20 19
l 18 20
l 19 21
l 21 22
l 22 23
l 23 24
l 24 25
l 19 26
l 26 27
l 20 28
l 28 29
l 30 18
l 31 30
o Icosphere
v 1.598762 5.045247 0.524003
v 6.144786 8.020038 4.543481
v -0.298916 8.840631 6.364553
v -4.117451 9.371903 1.037382
v -0.298916 8.840631 -5.316548
v 6.567044 8.840633 -3.085623
v 3.496440 14.981846 6.364553
v -2.619172 15.220193 4.568755
v -3.735320 13.958237 -2.356159
v 3.496440 14.981846 -5.316548
v 7.361182 14.342288 -0.277512
v 1.598762 18.777229 0.524003
v 0.483343 6.070652 3.956966
v 4.519024 6.070654 2.645673
v 3.403617 8.301528 6.078670
v 7.439304 8.301540 0.524003
v 4.389257 6.955105 -0.939419
v -2.010894 6.070671 0.524003
v -3.126340 8.301538 3.956978
v 0.169900 6.960138 -2.656493
v -3.126340 8.301538 -2.908972
v 4.061523 8.782530 -3.948823
v 8.128717 11.911239 2.645681
v 8.643291 10.537389 -1.194091
v 0.652154 11.221811 7.578385
v 5.634494 11.911239 6.078705
v -4.380353 13.025984 3.047966
v -2.367919 11.885890 5.292469
v -2.060047 11.520932 -6.056843
v -5.035038 10.535135 -1.596800
v 5.939377 10.679866 -5.284660
v 1.598762 11.911239 -6.341989
v 6.323865 15.520939 3.956978
v -0.206093 15.520948 6.078670
v -4.321532 15.151759 0.601425
v -0.606718 16.249325 -3.880438
v 6.323865 15.520939 -2.908972
v 3.584111 16.927937 3.414212
v 5.401760 17.086176 1.925394
v -1.321500 17.751823 2.645673
v -2.369284 16.202904 0.091849
v 2.714180 17.751823 -2.908961
vt 0.818181 0.000000
vt 0.772726 0.078731
vt 0.863635 0.078731
vt 0.727272 0.157461
vt 0.681818 0.078731
vt 0.636363 0.157461
vt 0.090909 0.000000
vt 0.045454 0.078731
vt 0.136363 0.078731
vt 0.272727 0.000000
vt 0.227273 0.078731
vt 0.318182 0.078731
vt 0.454545 0.000000
vt 0.409090 0.078731
vt 0.500000 0.078731
vt 0.681818 0.236191
vt 0.909090 0.157461
vt 0.818181 0.157461
vt 0.863635 0.236191
vt 0.181818 0.157461
vt 0.090909 0.157461
vt 0.136363 0.236191
vt 0.363636 0.157461
vt 0.272727 0.157461
vt 0.318182 0.236191
vt 0.545454 0.157461
vt 0.454545 0.157461
vt 0.500000 0.236191
vt 0.772726 0.236191
vt 0.954545 0.236191
vt 0.227273 0.236191
vt 0.409090 0.236191
vt 0.590909 0.236191
vt 0.818181 0.314921
vt 0.727272 0.314921
vt 0.772726 0.393651
vt 1.000000 0.314921
vt 0.909091 0.314921
vt 0.954545 0.393651
vt 0.272727 0.314921
vt 0.181818 0.314921
vt 0.227273 0.393651
vt 0.454545 0.314921
vt 0.363636 0.314921
vt 0.409090 0.393651
vt 0.636363 0.314921
vt 0.545454 0.314921
vt 0.590909 0.393651
vt 0.500000 0.393651
vt 0.545454 0.472382
vt 0.318182 0.393651
vt 0.363636 0.472382
vt 0.136363 0.393651
vt 0.181818 0.472382
vt 0.090909 0.314921
vt 0.863635 0.393651
vt 0.909090 0.472382
vt 0.681818 0.393651
vt 0.727272 0.472382
vt 0.045454 0.236191
vt 0.000000 0.157461
vt 0.590909 0.078731
vt 0.636363 0.000000
vn 0.1024 -0.9435 0.3151
vn 0.6719 -0.7218 0.1658
vn -0.2680 -0.9435 0.1947
vn -0.2486 -0.8751 -0.4152
vn 0.2336 -0.7830 -0.5764
vn 0.9049 -0.3305 0.2683
vn 0.0025 -0.4550 0.8905
vn -0.9474 -0.2040 0.2468
vn -0.4952 -0.5180 -0.6975
vn 0.2446 -0.7083 -0.6622
vn 0.8027 -0.1248 0.5832
vn -0.6173 -0.1474 0.7728
vn -0.9492 -0.2013 0.2418
vn -0.0433 -0.2923 -0.9553
vn 0.7719 -0.3617 -0.5228
vn 0.3014 0.7918 0.5312
vn -0.4500 0.6749 0.5848
vn -0.5131 0.7558 -0.4067
vn -0.0681 0.6435 -0.7624
vn 0.7962 0.6035 -0.0435
vn 0.4406 0.8893 -0.1225
vn 0.5178 0.8379 -0.1725
vn 0.4089 0.6617 -0.6284
vn -0.4711 0.7915 -0.3895
vn -0.3697 0.9164 -0.1534
vn -0.6524 0.7038 -0.2813
vn -0.4982 0.8168 -0.2910
vn -0.5109 0.8118 -0.2828
vn -0.7338 0.6074 0.3044
vn 0.0653 0.8603 0.5056
vn 0.0589 0.8457 0.5304
vn 0.0785 0.8311 0.5505
vn 0.2473 0.8843 0.3959
vn 0.3232 0.8149 0.4812
vn 0.8312 0.5538 0.0495
vn 0.9128 0.3559 -0.2004
vn 0.8209 0.1977 -0.5357
vn 0.5773 0.3223 -0.7502
vn -0.1849 0.4122 -0.8921
vn -0.1166 0.4446 -0.8881
vn -0.6413 0.4746 -0.6029
vn -0.9133 0.2814 -0.2946
vn -0.9902 0.1163 0.0772
vn -0.8339 0.4264 0.3505
vn -0.5377 0.1399 0.8314
vn -0.5716 0.1662 0.8035
vn -0.0257 0.3247 0.9455
vn 0.5746 0.3304 0.7488
vn 0.7947 0.1876 0.5773
vn 0.9043 0.4135 0.1064
vn 0.2736 0.1483 -0.9504
vn 0.0275 -0.5936 -0.8043
vn 0.2622 -0.4476 -0.8549
vn -0.8347 0.2034 -0.5118
vn -0.7578 -0.3103 -0.5740
vn -0.7652 -0.6435 -0.0176
vn -0.7164 0.0960 0.6911
vn -0.7617 -0.0784 0.6431
vn -0.6235 -0.1537 0.7666
vn 0.2738 0.1016 0.9564
vn 0.3070 -0.1897 0.9326
vn 0.4478 -0.2767 0.8503
vn 0.9486 0.3163 0.0140
vn 0.9197 -0.3142 0.2356
vn 0.7450 -0.6095 -0.2711
vn 0.1999 -0.8277 -0.5244
vn 0.2123 -0.8248 -0.5240
vn 0.1741 -0.7894 -0.5887
vn -0.2879 -0.8052 -0.5185
vn -0.3078 -0.8404 -0.4461
vn -0.8458 -0.5290 -0.0689
vn -0.8341 -0.5452 0.0833
vn -0.4911 -0.7947 0.3568
vn -0.4089 -0.6617 0.6284
vn 0.4869 -0.8390 -0.2430
vn 0.4822 -0.8464 -0.2263
vn 0.4658 -0.8551 -0.2278
vn -0.0385 -0.6617 0.7488
vn 0.1876 -0.7947 0.5773
vn 0.2471 -0.7738 0.5832
usemtl Material.001
s off
f 32/21/15 45/22/15 44/23/15
f 33/24/16 45/25/16 47/26/16
f 32/27/17 44/28/17 49/29/17
f 32/30/18 49/31/18 51/32/18
f 32/33/19 51/34/19 48/35/19
f 33/24/20 47/26/20 54/36/20
f 34/37/21 46/38/21 56/39/21
f 35/40/22 50/41/22 58/42/22
f 36/43/23 52/44/23 60/45/23
f 37/46/24 53/47/24 62/48/24
f 33/24/25 54/36/25 57/49/25
f 34/37/26 56/39/26 59/50/26
f 35/40/27 58/42/27 61/51/27
f 36/43/28 60/45/28 63/52/28
f 37/46/29 62/48/29 55/53/29
f 38/54/30 64/55/30 69/56/30
f 39/57/31 65/58/31 71/59/31
f 40/60/32 66/61/32 72/62/32
f 41/63/33 67/64/33 73/65/33
f 42/66/34 68/67/34 70/68/34
f 70/68/35 73/69/35 43/70/35
f 70/68/36 68/67/36 73/69/36
f 68/67/37 41/63/37 73/69/37
f 73/65/38 72/71/38 43/72/38
f 73/65/39 67/64/39 72/71/39
f 67/64/40 40/60/40 72/71/40
f 72/62/41 71/73/41 43/74/41
f 72/62/42 66/61/42 71/73/42
f 66/61/43 39/75/43 71/73/43
f 71/59/44 69/76/44 43/77/44
f 71/59/45 65/58/45 69/76/45
f 65/58/46 38/54/46 69/76/46
f 69/56/47 70/78/47 43/79/47
f 69/56/48 64/55/48 70/78/48
f 64/55/49 42/66/49 70/78/49
f 55/53/50 68/67/50 42/66/50
f 55/53/51 62/48/51 68/67/51
f 62/48/52 41/63/52 68/67/52
f 63/52/53 67/64/53 41/63/53
f 63/52/54 60/45/54 67/64/54
f 60/45/55 40/60/55 67/64/55
f 61/51/56 66/61/56 40/60/56
f 61/51/57 58/42/57 66/61/57
f 58/42/58 39/75/58 66/61/58
f 59/50/59 65/58/59 39/57/59
f 59/50/60 56/39/60 65/58/60
f 56/39/61 38/54/61 65/58/61
f 57/49/62 64/55/62 38/54/62
f 57/49/63 54/36/63 64/55/63
f 54/36/64 42/66/64 64/55/64
f 62/48/65 63/52/65 41/63/65
f 62/48/66 53/47/66 63/52/66
f 53/47/67 36/43/67 63/52/67
f 60/45/68 61/51/68 40/60/68
f 60/45/69 52/44/69 61/51/69
f 52/44/70 35/40/70 61/51/70
f 58/42/71 59/80/71 39/75/71
f 58/42/72 50/41/72 59/80/72
f 50/41/73 34/81/73 59/80/73
f 56/39/74 57/49/74 38/54/74
f 56/39/75 46/38/75 57/49/75
f 46/38/76 33/24/76 57/49/76
f 54/36/77 55/53/77 42/66/77
f 54/36/78 47/26/78 55/53/78
f 47/26/79 37/46/79 55/53/79
f 48/35/80 53/47/80 37/46/80
f 48/35/81 51/34/81 53/47/81
f 51/34/82 36/43/82 53/47/82
f 51/32/83 52/44/83 36/43/83
f 51/32/84 49/31/84 52/44/84
f 49/31/85 35/40/85 52/44/85
f 49/29/86 50/41/86 35/40/86
f 49/29/87 44/28/87 50/41/87
f 44/28/88 34/81/88 50/41/88
f 47/26/89 48/82/89 37/46/89
f 47/26/90 45/25/90 48/82/90
f 45/25/91 32/83/91 48/82/91
f 44/23/92 46/38/92 34/37/92
f 44/23/93 45/22/93 46/38/93
f 45/22/94 33/24/94 46/38/94
